<svg id="Group_2" data-name="Group 2" xmlns="http://www.w3.org/2000/svg" width="422.367" height="142.565" viewBox="0 0 422.367 142.565">
  <defs>
    <style>
      .cls-1 {
        fill: #f76c6c;
      }

      .cls-2 {
        fill: #374785;
      }

      .cls-3 {
        fill: #f96e6e;
      }

      .cls-4 {
        fill: #d35e5e;
      }
    </style>
  </defs>
  <g id="One" transform="translate(353.834 1.977)">
    <path id="Path_48" data-name="Path 48" class="cls-1" d="M267.925,117.343,240.49,103.881l2.816-89.671,27.435,13.462Z" transform="translate(-221.705 2.65)"/>
    <path id="Path_50" data-name="Path 50" class="cls-1" d="M252.557,14.183,225.11.721,265.7.02l27.435,13.462Z" transform="translate(-224.599 -0.02)"/>
    <path id="Path_51" data-name="Path 51" class="cls-2" d="M288.869,11.35l-3.339,106.2-18.975.333,2.816-89.671-21.6.38.523-16.539Z" transform="translate(-220.335 2.112)"/>
    <path id="Path_49" data-name="Path 49" class="cls-1" d="M252.115,30.611,224.68,17.149,225.191.61l27.447,13.462Z" transform="translate(-224.68 0.091)"/>
  </g>
  <g id="Two_2" data-name="Two 2" transform="translate(239.184 20.756)">
    <path id="Path_53" data-name="Path 53" class="cls-3" d="M181.565,106.744,154.13,93.271l.416-13.2,27.435,13.462Z" transform="translate(-153.013 15.065)"/>
    <path id="Path_52" data-name="Path 52" class="cls-4" d="M204.855,90.336,177.42,76.874l48.168-.844,27.435,13.462Z" transform="translate(-148.631 14.305)"/>
    <path id="Path_54" data-name="Path 54" class="cls-1" d="M231.663,31.3a13.283,13.283,0,0,0-2.6-1.663L201.615,16.17a13.284,13.284,0,0,1,2.6,1.663q4.753,3.862,4.468,11.3a24.144,24.144,0,0,1-2.733,10.123q-2.566,5.133-9.648,12.072L154.48,92.094l27.435,13.462L223.75,64.79q7.129-6.939,9.648-12.072a24.144,24.144,0,0,0,2.733-10.123Q236.356,35.157,231.663,31.3Z" transform="translate(-152.947 3.041)"/>
    <path id="Path_55" data-name="Path 55" class="cls-1" d="M193.588,39.248,166.153,25.786,153.19,15.39l27.435,13.462Z" transform="translate(-153.19 2.895)"/>
    <path id="Path_56" data-name="Path 56" class="cls-1" d="M212.941,3.909Q204.624-.2,192.588.012a55.618,55.618,0,0,0-22.837,5.026A42.5,42.5,0,0,0,153.2,18.286l27.435,13.462A42.5,42.5,0,0,1,197.186,18.5a55.618,55.618,0,0,1,22.837-5.026q11.989-.214,20.353,3.9Z" transform="translate(-153.188 -0.001)"/>
    <path id="Path_57" data-name="Path 57" class="cls-2" d="M215.666,11.342q16.634-.285,26.306,7.723t9.22,22.124a39.542,39.542,0,0,1-3.957,16.3q-3.743,7.652-13.973,17.537l-28.2,27.482,48.168-.844-.523,16.634-75.318,1.319.416-13.2,41.835-40.766q7.129-6.939,9.648-12.072a24.144,24.144,0,0,0,2.733-10.123q.238-7.438-4.468-11.3t-14.032-3.7q-15.624.273-24.286,11.49L176.29,29.568A42.5,42.5,0,0,1,192.841,16.32a55.618,55.618,0,0,1,22.825-4.978Z" transform="translate(-148.843 2.131)"/>
  </g>
  <g id="Zero" transform="translate(114.65 0)">
    <path id="Path_58" data-name="Path 58" class="cls-4" d="M157.678,38a19.759,19.759,0,0,0-7.83-7.2L122.413,17.33a19.759,19.759,0,0,1,7.83,7.2q6.048,9.3,5.466,27.958t-7.224,28.171q-6.642,9.505-17.6,9.707a19.426,19.426,0,0,1-9.018-1.877l27.482,13.486a19.426,19.426,0,0,0,9.018,1.877q10.9-.178,17.537-9.684T163.132,66Q163.726,47.307,157.678,38Z" transform="translate(-69.387 1.723)"/>
    <path id="Path_59" data-name="Path 59" class="cls-1" d="M125.312,120.3,97.877,106.834a35.646,35.646,0,0,1-4.087-2.376q-9.434-6.25-14.579-18.524T74.577,56.681q.511-17,6.452-29.467a46.22,46.22,0,0,1,15.8-19.07,39.946,39.946,0,0,1,22.1-6.832,38.14,38.14,0,0,1,17.727,3.755l27.423,13.45a38.14,38.14,0,0,0-17.7-3.743,39.946,39.946,0,0,0-22.1,6.832A46.22,46.22,0,0,0,108.5,40.689q-5.941,12.464-6.475,29.455T106.658,99.4q5.145,12.274,14.591,18.547a35.649,35.649,0,0,0,4.064,2.353Z" transform="translate(-74.531 -1.294)"/>
    <path id="Path_60" data-name="Path 60" class="cls-2" d="M178.441,37.251q5.18,12.274,4.634,29.288T176.6,95.982a46.077,46.077,0,0,1-15.85,19.082,40.3,40.3,0,0,1-22.171,6.832,36.976,36.976,0,0,1-21.7-6.06q-9.434-6.274-14.591-18.547T97.658,68.036q.535-16.991,6.476-29.455A46.22,46.22,0,0,1,119.912,19.5a39.946,39.946,0,0,1,22.124-6.856A37.309,37.309,0,0,1,163.8,18.7Q173.272,24.953,178.441,37.251Zm-21.732,57.8q6.642-9.505,7.224-28.171t-5.466-27.958a18.761,18.761,0,0,0-17-9.1q-10.8.19-17.454,9.707t-7.212,28.2q-.582,18.654,5.466,27.946a18.63,18.63,0,0,0,16.86,9.1q10.943-.214,17.585-9.719" transform="translate(-70.189 0.837)"/>
  </g>
  <g id="Two" transform="translate(0 10.872)">
    <path id="Path_61" data-name="Path 61" class="cls-4" d="M51.665,93.006,24.23,79.544,72.4,78.7,99.833,92.174Z" transform="translate(4.559 11.587)"/>
    <path id="Path_62" data-name="Path 62" class="cls-3" d="M28.377,109.412.93,95.951l.416-13.2L28.792,96.212Z" transform="translate(0.175 12.349)"/>
    <path id="Path_63" data-name="Path 63" class="cls-1" d="M78.463,33.975a13.283,13.283,0,0,0-2.6-1.663L48.474,18.85a13.3,13.3,0,0,1,2.6,1.663q4.753,3.862,4.467,11.3a24.143,24.143,0,0,1-2.733,10.123q-2.566,5.133-9.648,12.072L1.28,94.774l27.447,13.462L70.55,67.47Q77.679,60.531,80.2,55.4a24.143,24.143,0,0,0,2.733-10.123Q83.168,37.837,78.463,33.975Z" transform="translate(0.241 0.326)"/>
    <path id="Path_64" data-name="Path 64" class="cls-1" d="M40.4,41.918,12.951,28.456,0,18.06,27.435,31.522Z" transform="translate(0 0.177)"/>
    <path id="Path_65" data-name="Path 65" class="cls-1" d="M59.741,6.619q-8.317-4.111-20.353-3.9A55.618,55.618,0,0,0,16.551,7.7,42.5,42.5,0,0,0,0,20.948L27.435,34.422a42.5,42.5,0,0,1,16.527-13.26,55.618,55.618,0,0,1,22.86-5.038q11.989-.214,20.353,3.9Z" transform="translate(0 -2.711)"/>
    <path id="Path_66" data-name="Path 66" class="cls-2" d="M62.478,14q16.634-.285,26.306,7.723T98,43.848a39.542,39.542,0,0,1-4,16.29q-3.755,7.687-13.985,17.573l-28.136,27.47,48.168-.879-.523,16.634L24.171,122.35l.416-13.2L66.446,68.384q7.129-6.939,9.648-12.072a24.143,24.143,0,0,0,2.733-10.123q.238-7.438-4.468-11.3t-14.02-3.7q-15.624.273-24.286,11.49L23.09,32.3a42.5,42.5,0,0,1,16.527-13.26A55.618,55.618,0,0,1,62.478,14Z" transform="translate(4.345 -0.588)"/>
  </g>
</svg>
