<svg xmlns="http://www.w3.org/2000/svg" viewBox="0 0 481.57 385.32"><defs><style>.cls-1{fill:none;}.cls-2{fill:#d35e5e;}.cls-3{fill:#a8a8a8;}.cls-4{fill:#fff;}</style></defs><title>Display</title><g id="Layer_2" data-name="Layer 2"><g id="Layer_1-2" data-name="Layer 1"><path class="cls-1" d="M13.41,13.37l8.84-6.65A33.43,33.43,0,0,1,42.8,0L34,6.66A33.43,33.43,0,0,0,13.41,13.37Z"/><path class="cls-1" d="M468.15,372l-8.84,6.65A33.8,33.8,0,0,0,472.73,351l8.84-6.65A33.8,33.8,0,0,1,468.15,372Z"/><path class="cls-2" d="M42.8,0q-1.23,0-2.43.06-1.59.1-3.14.34a33.29,33.29,0,0,0-15,6.32l-8.84,6.65a33.32,33.32,0,0,1,15-6.32q1.55-.24,3.14-.34,1.2-.07,2.43-.06h0l399.56,4L472.73,351q0,.25,0,.5,0,1.49-.12,2.95t-.36,2.89q-.25,1.48-.62,2.91t-.94,3a33.61,33.61,0,0,1-11.36,15.38l8.84-6.65a33.63,33.63,0,0,0,11.36-15.38q.54-1.48.94-3t.62-2.91q.24-1.42.36-2.89t.12-2.95q0-.25,0-.49h0L477.3,39.08h0c0-.76-.05-1.52-.11-2.27,0-.09,0-.18,0-.28s0-.37-.06-.55,0-.49-.08-.73-.09-.64-.14-1-.07-.47-.11-.7c0-.08,0-.16,0-.24s-.08-.38-.12-.57-.13-.64-.2-1-.13-.53-.19-.79-.16-.62-.24-.93l-.08-.29c0-.12-.08-.25-.12-.37q-.21-.69-.44-1.38l-.21-.59q-.31-.85-.66-1.68l-.06-.16v0c-.3-.69-.62-1.36-1-2l-.26-.5c-.32-.61-.66-1.21-1-1.8l-.1-.17c-.39-.63-.8-1.25-1.22-1.85l-.33-.46c-.4-.55-.8-1.08-1.23-1.61l-.14-.18c-.47-.57-1-1.12-1.46-1.66l-.38-.4q-.69-.72-1.41-1.4l-.2-.19c-.54-.5-1.1-1-1.67-1.44l-.43-.34q-.77-.61-1.57-1.17l-.18-.14-.06,0q-.84-.58-1.71-1.1l-.46-.27q-.67-.4-1.37-.76L458,7.92l-.29-.14-.85-.41L456.09,7l-.88-.37-.51-.22-.24-.09-.68-.25-.87-.31-.71-.22-.52-.16-.38-.1-.63-.17-1-.23-.63-.14-.31-.07L448,4.58l-.51-.09c-.53-.08-1.06-.16-1.59-.22h0c-.54-.06-1.08-.1-1.62-.14l-.52,0-.78,0h-.6L42.8,0"/><path class="cls-3" d="M433.54,10.7c.46,0,.92,0,1.38,0l.52,0c.54,0,1.08.08,1.62.14h0c.53.06,1.06.13,1.59.22l.51.09,1.07.2.63.14,1,.23.63.17.9.27.71.22.87.3.69.25.74.3.89.37L448,14l.85.41.6.31q.69.37,1.36.76l.46.27q.87.53,1.71,1.1l.25.18q.8.56,1.58,1.17l.43.34c.57.46,1.13.94,1.67,1.44l.2.19q.73.68,1.41,1.39l.38.4c.5.54,1,1.09,1.46,1.66l.14.18c.42.52.83,1.06,1.23,1.6l.33.46c.42.61.84,1.22,1.22,1.85l.09.16c.36.59.69,1.19,1,1.8l.26.5c.34.67.66,1.34,1,2l.07.18q.35.83.66,1.68l.21.6q.23.68.44,1.37c.07.22.13.44.2.67s.16.61.24.92.13.53.19.79.13.64.2,1,.11.54.16.81.07.47.11.7.1.64.14,1,.05.49.08.73.05.55.07.83c.06.75.1,1.51.11,2.28h0L472.72,351"/><path class="cls-4" d="M472.72,351a33.57,33.57,0,0,1-34,34.34l-399.57-4a35.58,35.58,0,0,1-34.93-35L0,41A33.58,33.58,0,0,1,34,6.65l399.57,4a35.58,35.58,0,0,1,34.93,35Z"/></g></g></svg>