<svg xmlns="http://www.w3.org/2000/svg" width="56.807" height="56.794" viewBox="0 0 56.807 56.794">
  <path id="instagram" d="M28.4,16.074A14.561,14.561,0,1,0,42.966,30.635,14.538,14.538,0,0,0,28.4,16.074Zm0,24.028a9.467,9.467,0,1,1,9.467-9.467A9.484,9.484,0,0,1,28.4,40.1ZM46.958,15.478a3.4,3.4,0,1,1-3.4-3.4A3.388,3.388,0,0,1,46.958,15.478ZM56.6,18.925c-.215-4.55-1.255-8.58-4.588-11.9s-7.35-4.36-11.9-4.588c-4.689-.266-18.743-.266-23.433,0-4.537.215-8.567,1.255-11.9,4.575s-4.36,7.35-4.588,11.9c-.266,4.689-.266,18.743,0,23.433.215,4.55,1.255,8.58,4.588,11.9s7.35,4.36,11.9,4.588c4.689.266,18.743.266,23.433,0,4.55-.215,8.58-1.255,11.9-4.588s4.36-7.35,4.588-11.9c.266-4.689.266-18.731,0-23.42ZM50.544,47.376a9.584,9.584,0,0,1-5.4,5.4c-3.739,1.483-12.61,1.141-16.741,1.141s-13.015.329-16.741-1.141a9.584,9.584,0,0,1-5.4-5.4c-1.483-3.739-1.141-12.61-1.141-16.741S4.795,17.62,6.265,13.894a9.584,9.584,0,0,1,5.4-5.4C15.4,7.012,24.273,7.354,28.4,7.354S41.42,7.025,45.146,8.5a9.584,9.584,0,0,1,5.4,5.4c1.483,3.739,1.141,12.61,1.141,16.741S52.027,43.65,50.544,47.376Z" transform="translate(0.005 -2.238)" fill="#fff"/>
</svg>
