<svg xmlns="http://www.w3.org/2000/svg" viewBox="0 0 1833.99 2563.4"><defs><style>.cls-1{fill:#2f3c7e;}</style></defs><title>LIT logo</title><g id="Layer_2" data-name="Layer 2"><g id="Layer_1-2" data-name="Layer 1"><path class="cls-1" d="M1013.1,2250.51s-75.27,110.8-90.54,312.89l-.1-303.7c5.68-3.85,9.51-11.18,9.51-19.62s-3.84-15.81-9.51-19.65l0-173.55s0-119.18,45.36-213.54C967.77,1833.34,930.78,2076.69,1013.1,2250.51Z"/><path class="cls-1" d="M902,2240.08c0,8.41,3.81,15.78,9.49,19.62l-.07,303.7c-15.27-202.09-90.54-312.89-90.54-312.89,82.32-173.82,45.33-417.17,45.33-417.17,45.33,94.36,45.33,213.54,45.33,213.54l0,173.55C905.82,2224.3,902,2231.67,902,2240.08Z"/><path class="cls-1" d="M999.61,1803.46s-43.16,222,18.63,394.91c0,0-11.53-286.49,23.94-420.59l-69.29-776.1-45.34,54.84v832.54S969.47,1764.09,999.61,1803.46Z"/><path class="cls-1" d="M834.38,1803.46s43.16,222-18.63,394.91c0,0,11.53-286.49-23.94-420.59l69.29-776.1,45.34,54.84v832.54S864.52,1764.09,834.38,1803.46Z"/><path class="cls-1" d="M529.19,1325.44s-222.26-11.09-381-186.51c0,0,195.8,78.25,285.76,93.26,0,0-312.22-190.42-391.6-415.4,0,0,116.42,107.6,291.06,136.95,0,0-275.18-190.75-333.39-533.11,0,0,116.42,220.09,291.06,308.13,0,0-185.22-415.73,190.51-728.75,0,0-79.38,704.29,174.63,1017.31,0,0-238.14-195.64-285.76-538,0,0-26.46,288.56,52.92,410.84,0,0-148.17-63.58-222.26-156.51,0,0,158.76,244.55,254,317.91,0,0-148.17-9.78-206.38-48.91,0,0,169.34,185.85,291.06,264.11,0,0-84.67,9.78-121.71-9.78C418.06,1257,455.11,1296.09,529.19,1325.44Z"/><path class="cls-1" d="M1304.8,1325.44s222.26-11.09,381-186.51c0,0-195.8,78.25-285.76,93.26,0,0,312.22-190.42,391.6-415.4,0,0-116.42,107.6-291.06,136.95,0,0,275.18-190.75,333.39-533.11,0,0-116.42,220.09-291.06,308.13,0,0,185.22-415.73-190.51-728.75,0,0,79.38,704.29-174.63,1017.31,0,0,238.14-195.64,285.76-538,0,0,26.46,288.56-52.92,410.84,0,0,148.17-63.58,222.26-156.51,0,0-158.76,244.55-254,317.91,0,0,148.17-9.78,206.38-48.91,0,0-169.34,185.85-291.06,264.11,0,0,84.67,9.78,121.71-9.78C1415.93,1257,1378.88,1296.09,1304.8,1325.44Z"/><path class="cls-1" d="M806.1,766.71A10.61,10.61,0,0,0,805,768C805.37,767.55,805.74,767.13,806.1,766.71Z"/><path class="cls-1" d="M906.79,1247.23c-61.15-115.19-45.51-157.85-19.91-190.56s83.9-52.62,89.59-89.59-5.69-48.35-5.69-48.35S985,964.23,949.45,981.3,867,1005.47,857,1065.2s-6.59,139.36-6.59,139.36-12.15-23.9-21.26-65.71c-3.55-16.28-6.91-32-9.82-48.37,1.62-41.63,7.85-95.09,27.62-125.33,35.66-54.53,73.41-111.16,73.41-125.84l-25.17-8.39s21.56-8.63,21-21a441.57,441.57,0,0,1-31.46-33.56s41.95,16.78,73.41,56.63c0,0-39.85,54.53-10.49,121.65,0,0-14.68-75.51,41.95-92.29,0,0,31.46-4.19,41.95-2.1,0,0-73.41-81.8-113.26-98.58-39.2-16.51-90.55-20.81-112.18,5,2.91-3.05,11.94-9.92,29.64-2.3,13.27,5.71,36.92,24.3,51.08,45.53,0,0-12.15,26.67-54.94,29.32-5.48.34-9.26-3.09-14.28-8.35,0,0-4.19,16.78,16.78,23.07s41.95-2.1,41.95-2.1S891,864.48,870,889.64c-20.78,24.93-101.22,128.09-51.75,256.44a467.19,467.19,0,0,0,34.46,94c64,130.83,137.94,91,170.65,146.47s-32.71,103.81-32.71,103.81,69.68-24.18,69.68-93.86S967.94,1362.41,906.79,1247.23Z"/><path class="cls-1" d="M1488.78,1065.69S1354.6,1211,1254,1261.36s-67.14,125.79-67.14,125.79,234.86-25.16,385.8-123c0,0-173.31,137-329.84,167.72s-174.68,123-174.68,123,40.4-226.42,118.72-307.48C1186.83,1247.38,1343.42,1191.48,1488.78,1065.69Z"/><path class="cls-1" d="M345.21,1065.69S479.39,1211,580,1261.36s67.14,125.79,67.14,125.79-234.86-25.16-385.8-123c0,0,173.31,137,329.84,167.72s174.68,123,174.68,123-40.4-226.42-118.72-307.48C647.16,1247.38,490.57,1191.48,345.21,1065.69Z"/></g></g></svg>