<svg xmlns="http://www.w3.org/2000/svg" x="0px" y="0px"
width="64" height="64"
viewBox="0 0 172 172"
style=" fill:#000000;"><g fill="none" fill-rule="nonzero" stroke="none" stroke-width="1" stroke-linecap="butt" stroke-linejoin="miter" stroke-miterlimit="10" stroke-dasharray="" stroke-dashoffset="0" font-family="none" font-weight="none" font-size="none" text-anchor="none" style="mix-blend-mode: normal"><path d="M0,172v-172h172v172z" fill="none"></path><g><path d="M86,18.8125c-37.10663,0 -67.1875,30.08087 -67.1875,67.1875c0,37.10663 30.08087,67.1875 67.1875,67.1875c37.10663,0 67.1875,-30.08087 67.1875,-67.1875c0,-37.10663 -30.08087,-67.1875 -67.1875,-67.1875z" fill="#ffffff"></path><path d="M86,157.21875c-39.2375,0 -71.21875,-31.98125 -71.21875,-71.21875c0,-39.2375 31.98125,-71.21875 71.21875,-71.21875c39.2375,0 71.21875,31.98125 71.21875,71.21875c0,39.2375 -31.98125,71.21875 -71.21875,71.21875zM86,22.84375c-34.80312,0 -63.15625,28.35313 -63.15625,63.15625c0,34.80313 28.35313,63.15625 63.15625,63.15625c34.80313,0 63.15625,-28.35312 63.15625,-63.15625c0,-34.80313 -28.35312,-63.15625 -63.15625,-63.15625z" fill="#f76c6c"></path><path d="M69.20313,90.03125c-1.20937,0 -2.41875,-0.5375 -3.225,-1.6125c-1.34375,-1.74688 -0.94063,-4.3 0.80625,-5.64375l26.875,-20.15625c1.74688,-1.34375 4.3,-0.94063 5.64375,0.80625c1.34375,1.74687 0.94062,4.3 -0.80625,5.64375l-26.875,20.15625c-0.67188,0.5375 -1.6125,0.80625 -2.41875,0.80625z" fill="#f76c6c"></path><path d="M96.07813,110.1875c-0.80625,0 -1.74688,-0.26875 -2.41875,-0.80625l-26.875,-20.15625c-1.74687,-1.34375 -2.15,-3.89687 -0.80625,-5.64375c1.34375,-1.74688 3.89687,-2.15 5.64375,-0.80625l26.875,20.15625c1.74687,1.34375 2.15,3.89688 0.80625,5.64375c-0.80625,1.075 -2.01562,1.6125 -3.225,1.6125z" fill="#f76c6c"></path></g></g></svg>