<svg xmlns="http://www.w3.org/2000/svg" width="931.517" height="215.422" viewBox="0 0 931.517 215.422">
  <defs>
    <style>
      .cls-1 {
        fill: #f76c6c;
      }

      .cls-2 {
        fill: #374785;
      }
    </style>
  </defs>
  <g id="Group_10" data-name="Group 10" transform="translate(-268.721 -129.035)">
    <g id="S" transform="translate(268.721 142.351)">
      <path id="Path_11" data-name="Path 11" class="cls-1" d="M226.476,89.988l18.949,9.781q3.669,1.92,7.134,4.2l-18.91-9.781a82.994,82.994,0,0,0-7.173-4.2Z" transform="translate(-123.447 -55.564)"/>
      <path id="Path_12" data-name="Path 12" class="cls-1" d="M120.634,168.888l-18.949-9.781a37.4,37.4,0,0,0,4.5,1.956q7.069,2.608,19.341,5.79a182.353,182.353,0,0,1,27.5,8.686q1.552.665,3.039,1.422l18.949,9.781q-1.487-.769-3.039-1.422a182.359,182.359,0,0,0-27.5-8.673q-12.272-3.221-19.341-5.79a37.386,37.386,0,0,1-4.5-1.969Z" transform="translate(-55.426 -93.239)"/>
      <path id="Path_13" data-name="Path 13" class="cls-1" d="M32.1,370.352l-18.949-9.781A54.347,54.347,0,0,1,0,351.324l18.949,9.716A54.347,54.347,0,0,0,32.1,370.352Z" transform="translate(0 -198.013)"/>
      <path id="Path_14" data-name="Path 14" class="cls-1" d="M71.612,290.96l-18.949-9.781a83.705,83.705,0,0,0,9.129,4.017,74.5,74.5,0,0,0,27.087,4.851h.965q16.224-.365,24.544-6.273a19.628,19.628,0,0,0,8.92-15.937,15.389,15.389,0,0,0-4.265-11.816,27.87,27.87,0,0,0-7.277-5.321l18.949,9.781a27.871,27.871,0,0,1,7.277,5.282,15.389,15.389,0,0,1,4.265,11.816,19.628,19.628,0,0,1-8.92,15.937q-8.334,5.908-24.544,6.273h-.965a74.494,74.494,0,0,1-27.087-4.812A83.7,83.7,0,0,1,71.612,290.96Z" transform="translate(-28.706 -143.165)"/>
      <path id="Path_15" data-name="Path 15" class="cls-1" d="M18.949,331.947,0,322.166,10.616,297.83l18.949,9.781Z" transform="translate(0 -168.854)"/>
      <path id="Path_16" data-name="Path 16" class="cls-1" d="M119.759,23.454a75.393,75.393,0,0,0-14.528-5.608,97.811,97.811,0,0,0-27.257-3.521H76.748q-19.2.43-32.787,7.082-14.033,6.9-21.271,18.363A50.015,50.015,0,0,0,14.97,65.187q-.587,16.524,6.795,26.083a44.172,44.172,0,0,0,14.88,12.624l18.949,9.781A44.172,44.172,0,0,1,40.74,101.117q-7.382-9.625-6.795-26.188A50.014,50.014,0,0,1,41.64,49.537Q48.878,38.087,62.911,31.2q13.6-6.651,32.787-7.082h1.226a97.812,97.812,0,0,1,27.283,3.508,75.394,75.394,0,0,1,14.528,5.595Z" transform="translate(-8.136 -14.317)"/>
      <path id="Path_17" data-name="Path 17" class="cls-2" d="M110.266,35.853h1.226a97.812,97.812,0,0,1,27.283,3.508,68.338,68.338,0,0,1,22.862,10.772l-9.82,24.323a79.555,79.555,0,0,0-20.475-9.586,69.551,69.551,0,0,0-20.958-3.117h-1q-15.989.352-24.1,6.521a20.867,20.867,0,0,0-8.712,16.641,15.024,15.024,0,0,0,4.252,11.737,30.974,30.974,0,0,0,11.594,7.055q7.068,2.608,19.341,5.79a182.361,182.361,0,0,1,27.5,8.634,44.9,44.9,0,0,1,18.076,14.059q7.368,9.52,6.808,25.822a49.336,49.336,0,0,1-7.721,25.275q-7.238,11.346-21.375,18.258-13.681,6.6-32.787,7.095h-1.3a103.745,103.745,0,0,1-33.908-5.217Q50.9,198.208,41.654,189.079L52.27,164.743a70.621,70.621,0,0,0,22.458,13.042,74.494,74.494,0,0,0,27.087,4.851h.965q16.224-.365,24.544-6.273a19.628,19.628,0,0,0,8.92-15.937,15.389,15.389,0,0,0-4.252-11.777,30.1,30.1,0,0,0-11.581-7.186q-7.069-2.608-19.341-5.777a204.75,204.75,0,0,1-27.831-8.79,43.729,43.729,0,0,1-17.932-14.046q-7.382-9.625-6.795-26.188a50.015,50.015,0,0,1,7.695-25.392q7.238-11.45,21.271-18.336Q91.082,36.271,110.266,35.853Z" transform="translate(-22.705 -26.051)"/>
    </g>
    <g id="R" transform="translate(423.692 165.993)">
      <path id="Path_18" data-name="Path 18" class="cls-1" d="M438.008,23.322l-1.226-.613Q422.371,15.667,402.6,15.9l-62.6.7,18.949,9.781,62.6-.7q19.771-.235,34.182,6.808l1.226.613Z" transform="translate(-334.184 -15.894)"/>
      <path id="Path_19" data-name="Path 19" class="cls-1" d="M529.725,335.426l-18.949-9.781-29.357-48.828,18.949,9.781Z" transform="translate(-411.268 -158.118)"/>
      <path id="Path_20" data-name="Path 20" class="cls-1" d="M477.03,97.146a26.644,26.644,0,0,0-5.856-4.056l-18.949-9.781a26.646,26.646,0,0,1,5.856,4.056q9.246,8.542,8.7,24.609T456.346,136.91q-9.638,8.673-27.466,9.064h-.874l-33.021.378,18.949,9.781,33.021-.378h.874q17.841-.391,27.466-9.064,9.859-8.868,10.433-24.936T477.03,97.146Z" transform="translate(-364.155 -52.64)"/>
      <path id="Path_21" data-name="Path 21" class="cls-1" d="M346.164,195.177,327.215,185.4,333.07,17.459l18.949,9.794Z" transform="translate(-327.215 -16.747)"/>
      <path id="Path_22" data-name="Path 22" class="cls-2" d="M465.82,149.811l33.047,54.775-30.374.352L439.137,156.11a46.766,46.766,0,0,1-4.8.287h-1.056l-34.325.378-1.708,48.945-28.235.313,5.79-167.9,62.6-.7q19.771-.235,34.182,6.808A48.254,48.254,0,0,1,493.273,64.61q7.342,13.355,6.7,31.822-.665,18.936-9.507,32.708A54.318,54.318,0,0,1,465.82,149.811Zm-4.656-28.131q9.859-8.868,10.433-24.936t-8.7-24.61q-9.273-8.529-27.726-8.307l-33.021.378-2.361,66.916,33.021-.378h.874q17.841-.391,27.466-9.064" transform="translate(-349.998 -27.629)"/>
    </g>
    <g id="I" transform="translate(587.833 166.413)">
      <path id="Path_23" data-name="Path 23" class="cls-1" d="M708.153,22.906,689.2,13.125l28.235-.339,18.95,9.781Z" transform="translate(-683.348 -12.786)"/>
      <path id="Path_24" data-name="Path 24" class="cls-1" d="M695.281,191.236l-18.949-9.781,5.856-167.924,18.949,9.781Z" transform="translate(-676.332 -13.192)"/>
      <path id="Path_25" data-name="Path 25" class="cls-2" d="M723.842,34.626l28.235-.339-5.856,167.937-28.235.326Z" transform="translate(-699.037 -24.506)"/>
    </g>
    <g id="S_2" data-name="S 2" transform="translate(654.774 129.035)">
      <path id="Path_26" data-name="Path 26" class="cls-1" d="M1028.229,80.9l18.949,9.781a81.932,81.932,0,0,1,7.212,4.212l-18.949-9.781a81.934,81.934,0,0,0-7.212-4.212Z" transform="translate(-925.24 -46.464)"/>
      <path id="Path_27" data-name="Path 27" class="cls-1" d="M922.588,159.886,903.639,150.1a37.184,37.184,0,0,0,4.447,1.93q7.068,2.608,19.341,5.777a183.574,183.574,0,0,1,27.5,8.686q1.565.665,3.052,1.435l18.949,9.781q-1.487-.769-3.052-1.435a183.579,183.579,0,0,0-27.479-8.686q-12.272-3.208-19.341-5.777A37.208,37.208,0,0,1,922.588,159.886Z" transform="translate(-857.328 -84.186)"/>
      <path id="Path_28" data-name="Path 28" class="cls-1" d="M833.922,361.35l-18.949-9.781a54.292,54.292,0,0,1-13.133-9.246l18.949,9.781A54.292,54.292,0,0,0,833.922,361.35Z" transform="translate(-801.839 -188.96)"/>
      <path id="Path_29" data-name="Path 29" class="cls-1" d="M820.789,322.831l-18.949-9.781,10.629-24.336,18.949,9.781Z" transform="translate(-801.839 -159.739)"/>
      <path id="Path_30" data-name="Path 30" class="cls-1" d="M873.423,281.83l-18.949-9.781a83.061,83.061,0,0,0,9.129,4.017,74.246,74.246,0,0,0,27.087,4.852h1.056q16.159-.365,24.453-6.273a19.562,19.562,0,0,0,8.92-15.924,15.415,15.415,0,0,0-4.212-11.829,28,28,0,0,0-7.277-5.308l18.949,9.781a27.988,27.988,0,0,1,7.277,5.308,15.415,15.415,0,0,1,4.265,11.829,19.562,19.562,0,0,1-8.92,15.924q-8.308,5.908-24.453,6.273h-1.056a74.246,74.246,0,0,1-27.087-4.851A83.067,83.067,0,0,1,873.423,281.83Z" transform="translate(-830.529 -134.049)"/>
      <path id="Path_31" data-name="Path 31" class="cls-1" d="M921.641,14.351a75.539,75.539,0,0,0-14.555-5.608,97.811,97.811,0,0,0-27.244-3.534h-1.3q-19.132.43-32.7,7.082-14.033,6.873-21.271,18.336a50,50,0,0,0-7.734,25.392q-.587,16.55,6.795,26.188a44.081,44.081,0,0,0,14.841,12.6l18.936,9.755a44.081,44.081,0,0,1-14.841-12.6q-7.408-9.573-6.795-26.135a50,50,0,0,1,7.734-25.392q7.225-11.516,21.258-18.35,13.563-6.638,32.7-7.082h1.3a97.813,97.813,0,0,1,27.27,3.482,75.538,75.538,0,0,1,14.554,5.608Z" transform="translate(-809.992 -5.202)"/>
      <path id="Path_32" data-name="Path 32" class="cls-2" d="M912.03,26.764h1.3a97.812,97.812,0,0,1,27.27,3.469,68.545,68.545,0,0,1,22.862,10.759l-9.755,24.336a79.171,79.171,0,0,0-20.515-9.56,69.954,69.954,0,0,0-20.958-3.13h-.913q-16.041.352-24.166,6.521a20.866,20.866,0,0,0-8.738,16.654,15.024,15.024,0,0,0,4.252,11.737,31.118,31.118,0,0,0,11.594,7.056q7.069,2.608,19.341,5.777a183.568,183.568,0,0,1,27.5,8.686,44.8,44.8,0,0,1,18.076,14.059q7.381,9.507,6.808,25.822a49.3,49.3,0,0,1-7.72,25.262q-7.238,11.359-21.375,18.258-13.668,6.638-32.8,7.082h-1.3a103.8,103.8,0,0,1-33.817-5.125q-16.211-5.347-25.457-14.346l10.616-24.349A70.189,70.189,0,0,0,876.6,168.773a74.246,74.246,0,0,0,27.087,4.851h1.056q16.159-.365,24.453-6.273a19.563,19.563,0,0,0,8.921-15.924,15.415,15.415,0,0,0-4.265-11.829,30.23,30.23,0,0,0-11.581-7.173q-7.069-2.608-19.341-5.79a201.442,201.442,0,0,1-27.831-8.79,43.6,43.6,0,0,1-17.971-14.059q-7.395-9.651-6.782-26.214a50,50,0,0,1,7.734-25.392q7.225-11.516,21.258-18.35Q892.9,27.194,912.03,26.764Z" transform="translate(-824.56 -16.949)"/>
    </g>
    <g id="I_2" data-name="I 2" transform="translate(1147.198 166.099)">
      <path id="Path_33" data-name="Path 33" class="cls-1" d="M1835.2,10.107,1816.251.326,1844.5,0l18.949,9.781Z" transform="translate(-1810.409)"/>
      <path id="Path_34" data-name="Path 34" class="cls-1" d="M1822.357,178.435l-18.949-9.781L1809.25.717,1828.2,10.5Z" transform="translate(-1803.408 -0.391)"/>
      <path id="Path_35" data-name="Path 35" class="cls-2" d="M1850.9,21.827l28.248-.326L1873.3,189.424l-28.235.339Z" transform="translate(-1826.113 -11.72)"/>
    </g>
    <g id="T" transform="translate(983.973 129.076)">
      <path id="Path_36" data-name="Path 36" class="cls-1" d="M1504.746,12.5,1485.8,2.722l129.046-1.461,18.949,9.781Z" transform="translate(-1484.871 -1.261)"/>
      <path id="Path_37" data-name="Path 37" class="cls-1" d="M1502.711,40.637l-18.949-9.781.926-26.383,18.949,9.781Z" transform="translate(-1483.761 -3.012)"/>
      <path id="Path_38" data-name="Path 38" class="cls-1" d="M1602.647,212.556l-18.949-9.781,4.943-141.54,18.949,9.781Z" transform="translate(-1538.235 -33.951)"/>
      <path id="Path_39" data-name="Path 39" class="cls-2" d="M1526.342,24.223l129.047-1.461-.913,26.383-50.406.574-4.943,141.54-28.248.326,4.943-141.54-50.406.561Z" transform="translate(-1506.466 -12.981)"/>
    </g>
    <g id="H" transform="translate(810.662 145.443)">
      <path id="Path_40" data-name="Path 40" class="cls-1" d="M1395.837,15.082l-18.95-9.768,28.248-.326,18.949,9.781Z" transform="translate(-1264.143 -4.988)"/>
      <path id="Path_41" data-name="Path 41" class="cls-1" d="M1217.667,168.784,1198.717,159l78.641-.9,18.949,9.781Z" transform="translate(-1167.026 -88.448)"/>
      <path id="Path_42" data-name="Path 42" class="cls-1" d="M1160.875,17.762,1141.926,7.98l28.248-.326,18.95,9.781Z" transform="translate(-1136.07 -6.441)"/>
      <path id="Path_43" data-name="Path 43" class="cls-1" d="M1382.981,298.388l-18.936-9.781,2.5-71.964,18.937,9.781Z" transform="translate(-1257.143 -120.357)"/>
      <path id="Path_44" data-name="Path 44" class="cls-1" d="M1390.534,84.815l-18.949-9.781L1374,5.7l18.949,9.768Z" transform="translate(-1261.252 -5.379)"/>
      <path id="Path_45" data-name="Path 45" class="cls-1" d="M1148,186.089l-18.949-9.781L1134.91,8.371l18.95,9.781Z" transform="translate(-1129.054 -6.832)"/>
      <path id="Path_46" data-name="Path 46" class="cls-2" d="M1176.564,28.028l28.248-.326L1202.4,97.044l78.641-.9,2.413-69.342,28.248-.313-5.856,167.937-28.248.313,2.5-71.964-78.641.887-2.5,71.977-28.248.326Z" transform="translate(-1151.759 -16.708)"/>
    </g>
  </g>
</svg>
